<svg width="12" height="10.4" viewBox="0 0 24 21" fill="none" xmlns="http://www.w3.org/2000/svg"><path d="M0.229252 12.4229L0.224696 12.4184C0.065299 12.2043 -0.0121263 11.9492 0.00154205 11.6941C0.0243131 11.316 0.252023 10.9424 0.607257 10.7967C0.730224 10.7511 0.857738 10.7238 0.980705 10.7238C1.10367 10.7238 1.23119 10.7511 1.35415 10.7967C1.46801 10.8422 1.57276 10.9151 1.65929 11.0062L8.45885 18.2674L21.2427 0.46066C21.3156 0.34222 21.4112 0.242 21.5159 0.16912C21.6252 0.0916798 21.7481 0.0370097 21.8802 0.0142397C22.0123 -0.00854026 22.1444 -0.00398983 22.272 0.0279002C22.3994 0.0597902 22.5224 0.11901 22.6363 0.201L22.659 0.21922C22.7592 0.30578 22.8412 0.41055 22.9004 0.52443C22.9596 0.64742 22.996 0.77953 23.0143 0.90708C23.0279 1.03918 23.0188 1.17129 22.9869 1.30339C22.9551 1.42638 22.9004 1.54482 22.823 1.64959C18.3188 7.9541 13.8238 14.2633 9.31501 20.5587L9.17843 20.6316C9.09642 20.7045 9.00079 20.7637 8.90055 20.8001C8.7867 20.8457 8.66373 20.8639 8.54537 20.8639C8.4224 20.8639 8.29483 20.8411 8.17186 20.791C8.06261 20.7455 7.95326 20.6771 7.86674 20.5815C5.72626 18.2947 1.97354 14.7461 0.229252 12.4229Z" fill="#E40521"></path></svg>