<svg xmlns="http://www.w3.org/2000/svg" width="30" height="31" viewBox="0 0 30 31" fill="none">
<path fill-rule="evenodd" clip-rule="evenodd" d="M24.9492 10.9172C24.9023 9.8545 24.7304 9.12392 24.4842 8.49086C24.2302 7.81888 23.8394 7.21726 23.3274 6.71713C22.8272 6.20922 22.2215 5.81455 21.5572 5.56456C20.9203 5.31838 20.1934 5.14654 19.1306 5.09968C18.0597 5.04886 17.7198 5.03711 15.0039 5.03711C12.288 5.03711 11.948 5.04886 10.8812 5.09571C9.81831 5.14257 9.08759 5.31457 8.45456 5.56059C7.7823 5.81455 7.18057 6.20525 6.68034 6.71713C6.17233 7.21726 5.77774 7.82285 5.52755 8.48704C5.28133 9.12392 5.10945 9.85053 5.06259 10.9132C5.01175 11.9838 5 12.3237 5 15.0391C5 17.7545 5.01175 18.0943 5.05862 19.161C5.10548 20.2237 5.27751 20.9543 5.52373 21.5873C5.77774 22.2593 6.17233 22.8609 6.68034 23.361C7.18057 23.869 7.78627 24.2636 8.45059 24.5136C9.08759 24.7598 9.81434 24.9316 10.8774 24.9785C11.9441 25.0255 12.2842 25.0371 15.0001 25.0371C17.716 25.0371 18.0559 25.0255 19.1228 24.9785C20.1857 24.9316 20.9164 24.7598 21.5494 24.5136C22.8938 23.994 23.9567 22.9313 24.4764 21.5873C24.7225 20.9504 24.8945 20.2237 24.9414 19.161C24.9882 18.0943 25 17.7545 25 15.0391C25 12.3237 24.996 11.9838 24.9492 10.9172ZM23.148 19.083C23.1049 20.0597 22.9408 20.5872 22.8041 20.9388C22.4679 21.8101 21.7763 22.5016 20.9048 22.8377C20.5531 22.9744 20.0218 23.1385 19.0486 23.1814C17.9935 23.2284 17.6771 23.24 15.0081 23.24C12.339 23.24 12.0186 23.2284 10.9673 23.1814C9.99037 23.1385 9.46282 22.9744 9.11112 22.8377C8.67745 22.6774 8.28271 22.4235 7.9623 22.0914C7.63014 21.7671 7.37614 21.3763 7.21586 20.9428C7.07908 20.5911 6.91499 20.0597 6.87209 19.0869C6.82508 18.032 6.81348 17.7155 6.81348 15.047C6.81348 12.3785 6.82508 12.0581 6.87209 11.0072C6.91499 10.0304 7.07908 9.50299 7.21586 9.15136C7.37614 8.71762 7.63014 8.3231 7.96627 8.0026C8.29049 7.6705 8.68127 7.41655 9.11509 7.25645C9.46679 7.1197 9.99831 6.95564 10.9713 6.9126C12.0264 6.86575 12.343 6.854 15.0119 6.854C17.6849 6.854 18.0013 6.86575 19.0526 6.9126C20.0295 6.95564 20.5571 7.1197 20.9088 7.25645C21.3425 7.41655 21.7372 7.6705 22.0576 8.0026C22.3898 8.32691 22.6438 8.71762 22.8041 9.15136C22.9408 9.50299 23.1049 10.0343 23.148 11.0072C23.1948 12.0621 23.2066 12.3785 23.2066 15.047C23.2066 17.7155 23.1948 18.0281 23.148 19.083ZM14.9332 10.3839C12.2097 10.3839 10 12.5934 10 15.3171C10 18.0407 12.2097 20.2502 14.9332 20.2502C17.6568 20.2502 19.8663 18.0407 19.8663 15.3171C19.8663 12.5934 17.6568 10.3839 14.9332 10.3839ZM14.9334 18.5172C13.1666 18.5172 11.7334 17.0842 11.7334 15.3172C11.7334 13.5502 13.1666 12.1172 14.9334 12.1172C16.7004 12.1172 18.1334 13.5502 18.1334 15.3172C18.1334 17.0842 16.7004 18.5172 14.9334 18.5172ZM20.0619 11.3404C20.698 11.3404 21.2137 10.8248 21.2137 10.1888C21.2137 9.55264 20.698 9.03711 20.0619 9.03711C19.4259 9.03711 18.9102 9.55264 18.9102 10.1888C18.9102 10.8248 19.4259 11.3404 20.0619 11.3404Z" fill="white"/>
</svg>