<svg xmlns="http://www.w3.org/2000/svg" width="47" height="12" fill="none"><path d="M9.06831 11.9999C12.4201 12.0159 15.4796 9.32531 15.4796 6.05207C15.4796 2.47292 12.4201 -0.00102573 9.06831 3.19038e-07H6.18383C2.79192 -0.00102573 0 2.47351 0 6.05207C0 9.32605 2.79192 12.0159 6.18383 11.9999H9.06831Z" fill="#006095"/><path d="M7.47034 9.24325V2.74382C8.80542 3.24497 9.75319 4.5098 9.75543 5.99332C9.75319 7.47713 8.80542 8.74122 7.47034 9.24325ZM2.64016 5.99332C2.64315 4.51068 3.58942 3.24658 4.92375 2.74397V9.24193C3.58942 8.73975 2.64315 7.4764 2.64016 5.99332ZM6.19727 0.5C3.09787 0.501026 0.58632 2.95944 0.585571 5.99332C0.58632 9.0269 3.09787 11.4849 6.19727 11.4858C9.29772 11.4849 11.8097 9.0269 11.8102 5.99332C11.8097 2.95944 9.29772 0.501026 6.19727 0.5Z" fill="#fff"/><path d="M17.4455 2.58597C17.4455 2.01842 17.1428 2.05565 16.8528 2.04964V1.88562C17.1041 1.89764 17.3619 1.89764 17.6138 1.89764C17.8844 1.89764 18.2521 1.88562 18.7296 1.88562C20.3994 1.88562 21.3085 2.97704 21.3085 4.0947C21.3085 4.71956 20.9349 6.29088 18.6519 6.29088C18.3233 6.29088 18.0197 6.27842 17.7168 6.27842C17.4269 6.27842 17.1428 6.28443 16.8528 6.29088V6.12672C17.2394 6.08875 17.4269 6.07615 17.4455 5.64697V2.58597ZM18.0775 5.54612C18.0775 6.03203 18.4326 6.08875 18.7483 6.08875C20.1415 6.08875 20.5991 5.06007 20.5991 4.11962C20.5991 2.93981 19.8252 2.0879 18.5807 2.0879C18.3159 2.0879 18.1942 2.10637 18.0775 2.11311V5.54612ZM21.5347 6.12686H21.6571C21.8374 6.12686 21.9665 6.12686 21.9665 5.91814V4.20815C21.9665 3.93068 21.8699 3.89213 21.631 3.76666V3.66552C21.9342 3.57669 22.2956 3.45738 22.321 3.43847C22.3664 3.41326 22.4049 3.40652 22.4372 3.40652C22.4691 3.40652 22.4825 3.44448 22.4825 3.49534V5.91814C22.4825 6.12686 22.6243 6.12686 22.8051 6.12686H22.9144V6.29103C22.695 6.29103 22.4691 6.27842 22.2376 6.27842C22.0053 6.27842 21.773 6.28458 21.5347 6.29103V6.12686ZM22.2247 2.43485C22.0567 2.43485 21.9087 2.28343 21.9087 2.11926C21.9087 1.96125 22.0637 1.8157 22.2247 1.8157C22.3919 1.8157 22.5406 1.94879 22.5406 2.11926C22.5406 2.28988 22.3984 2.43485 22.2247 2.43485ZM23.5271 4.24582C23.5271 4.01247 23.4558 3.94959 23.1535 3.82969V3.70979C23.4304 3.62155 23.6946 3.53917 24.0045 3.40652C24.0236 3.40652 24.0425 3.41941 24.0425 3.46954V3.87996C24.4106 3.62155 24.7268 3.40652 25.1594 3.40652C25.7071 3.40652 25.9004 3.79788 25.9004 4.29024V5.91814C25.9004 6.12686 26.0421 6.12686 26.2229 6.12686H26.339V6.29103C26.1128 6.29103 25.8871 6.27842 25.6556 6.27842C25.4231 6.27842 25.1908 6.28458 24.9588 6.29103V6.12686H25.0747C25.2557 6.12686 25.384 6.12686 25.384 5.91814V4.28408C25.384 3.92394 25.1594 3.7476 24.7912 3.7476C24.585 3.7476 24.2561 3.91148 24.0425 4.05043V5.91814C24.0425 6.12686 24.1852 6.12686 24.3659 6.12686H24.4818V6.29103C24.2561 6.29103 24.0301 6.27842 23.7979 6.27842C23.5661 6.27842 23.3335 6.28458 23.1016 6.29103V6.12686H23.218C23.3985 6.12686 23.5271 6.12686 23.5271 5.91814V4.24582ZM26.8293 4.54924C26.816 4.60611 26.816 4.70051 26.8293 4.91525C26.8672 5.51461 27.2617 6.00667 27.7768 6.00667C28.1321 6.00667 28.4097 5.81729 28.6477 5.58408L28.7379 5.67247C28.4412 6.05753 28.0735 6.38557 27.5453 6.38557C26.5195 6.38557 26.3134 5.41347 26.3134 5.00979C26.3134 3.77267 27.1642 3.40652 27.6153 3.40652C28.1382 3.40652 28.6997 3.72825 28.7054 4.39724C28.7054 4.43564 28.7054 4.47302 28.6997 4.51128L28.6411 4.54924H26.8293ZM27.9709 4.34711C28.1321 4.34711 28.1508 4.26488 28.1508 4.18924C28.1508 3.8675 27.9511 3.60879 27.5897 3.60879C27.1966 3.60879 26.9258 3.89213 26.8485 4.34711H27.9709ZM28.8541 6.12686H29.0283C29.2082 6.12686 29.3373 6.12686 29.3373 5.91814V4.14512C29.3373 3.94959 29.099 3.91148 29.0021 3.86105V3.76666C29.4728 3.57083 29.7309 3.40652 29.7898 3.40652C29.8276 3.40652 29.8468 3.42542 29.8468 3.48889V4.05674H29.8606C30.0212 3.81063 30.2925 3.40652 30.6857 3.40652C30.847 3.40652 31.0531 3.51366 31.0531 3.74101C31.0531 3.91148 30.9309 4.06333 30.7504 4.06333C30.5497 4.06333 30.5497 3.91148 30.3243 3.91148C30.2145 3.91148 29.8536 4.05674 29.8536 4.43564V5.91814C29.8536 6.12686 29.9822 6.12686 30.163 6.12686H30.5239V6.29103C30.1691 6.28458 29.8992 6.27842 29.6216 6.27842C29.3572 6.27842 29.0863 6.28458 28.8541 6.29103V6.12686ZM31.3368 5.41347C31.4208 5.82989 31.6785 6.18359 32.1496 6.18359C32.5294 6.18359 32.6712 5.95639 32.6712 5.73564C32.6712 4.99073 31.2659 5.23039 31.2659 4.2146C31.2659 3.86091 31.5565 3.40652 32.2655 3.40652C32.4716 3.40652 32.7488 3.46353 33.0001 3.58988L33.0457 4.23307H32.8972C32.8328 3.83584 32.6073 3.60865 32.1944 3.60865C31.9362 3.60865 31.6914 3.75376 31.6914 4.02508C31.6914 4.76398 33.1875 4.53634 33.1875 5.52706C33.1875 5.94349 32.8457 6.38572 32.0781 6.38572C31.8202 6.38572 31.5171 6.29719 31.2917 6.17113L31.2205 5.44527L31.3368 5.41347ZM39.0105 3.02776H38.8497C38.7269 2.28988 38.1916 1.99291 37.4697 1.99291C36.7277 1.99291 35.6505 2.47867 35.6505 3.99327C35.6505 5.26879 36.5799 6.18359 37.5726 6.18359C38.2107 6.18359 38.74 5.75455 38.8691 5.09158L39.0171 5.1294L38.8691 6.05079C38.5982 6.2154 37.8694 6.38557 37.4435 6.38557C35.9349 6.38557 34.9807 5.43252 34.9807 4.01247C34.9807 2.71862 36.1605 1.79064 37.4244 1.79064C37.9465 1.79064 38.4498 1.95524 38.9461 2.12571L39.0105 3.02776ZM39.2431 6.12686H39.365C39.5461 6.12686 39.6752 6.12686 39.6752 5.91814V2.40348C39.6752 1.99291 39.5785 1.98031 39.3334 1.91098V1.80998C39.5912 1.72805 39.8621 1.61445 39.9975 1.53837C40.0679 1.50085 40.1199 1.46875 40.1389 1.46875C40.1782 1.46875 40.1912 1.50701 40.1912 1.55758V5.91814C40.1912 6.12686 40.3329 6.12686 40.5137 6.12686H40.6225V6.29103C40.404 6.29103 40.1782 6.27842 39.946 6.27842C39.714 6.27842 39.4819 6.28458 39.2431 6.29103V6.12686ZM43.3836 5.94349C43.3836 6.05753 43.4543 6.06354 43.5638 6.06354C43.6414 6.06354 43.7377 6.05753 43.8218 6.05753V6.19033C43.5442 6.2154 43.0156 6.3479 42.893 6.38572L42.8605 6.36666V5.85569C42.4742 6.16483 42.177 6.38572 41.7187 6.38572C41.3708 6.38572 41.0097 6.16483 41.0097 5.63495V4.01892C41.0097 3.85475 40.9841 3.69689 40.6233 3.66552V3.54547C40.8557 3.53932 41.3708 3.5015 41.455 3.5015C41.5264 3.5015 41.5264 3.54547 41.5264 3.68443V5.31233C41.5264 5.502 41.5264 6.04463 42.087 6.04463C42.3063 6.04463 42.5964 5.88061 42.8669 5.66016V3.96175C42.8669 3.83584 42.5576 3.76666 42.3259 3.70348V3.58988C42.9057 3.55177 43.2674 3.5015 43.3315 3.5015C43.3836 3.5015 43.3836 3.54547 43.3836 3.61524V5.94349ZM44.6667 3.86105C44.9243 3.64646 45.2727 3.40652 45.6277 3.40652C46.3758 3.40652 46.8266 4.04442 46.8266 4.73202C46.8266 5.55873 46.2079 6.38572 45.2851 6.38572C44.8084 6.38572 44.5569 6.23401 44.389 6.16483L44.1958 6.30965L44.0609 6.24046C44.1179 5.86815 44.1509 5.502 44.1509 5.11708V2.40348C44.1509 1.99291 44.0537 1.98031 43.8088 1.91098V1.80998C44.0673 1.72805 44.3375 1.61445 44.4732 1.53837C44.5441 1.50085 44.5953 1.46875 44.6153 1.46875C44.654 1.46875 44.6667 1.50701 44.6667 1.55758V3.86105ZM44.6667 5.57749C44.6667 5.81729 44.8987 6.2217 45.3308 6.2217C46.021 6.2217 46.3109 5.55872 46.3109 4.99674C46.3109 4.3153 45.7827 3.7476 45.2794 3.7476C45.0403 3.7476 44.8408 3.89917 44.6667 4.04442V5.57749ZM16.8455 9.96033H16.8949C17.021 9.96033 17.1543 9.94362 17.1543 9.76479V7.96583C17.1543 7.78672 17.021 7.76971 16.8949 7.76971H16.8455V7.66667C16.9824 7.66667 17.1929 7.68015 17.3653 7.68015C17.5406 7.68015 17.7508 7.66667 17.9157 7.66667V7.76971H17.8665C17.7407 7.76971 17.6071 7.78672 17.6071 7.96583V9.76479C17.6071 9.94362 17.7407 9.96033 17.8665 9.96033H17.9157V10.0638C17.7474 10.0638 17.5364 10.0503 17.3616 10.0503C17.1895 10.0503 16.9824 10.0638 16.8455 10.0638V9.96033ZM20.3265 9.38691L20.3335 9.38017V8.09262C20.3335 7.8109 20.1333 7.76971 20.0281 7.76971H19.9509V7.66667C20.1159 7.66667 20.2774 7.6803 20.4421 7.6803C20.5859 7.6803 20.7303 7.66667 20.8738 7.66667V7.76971H20.8215C20.6737 7.76971 20.5088 7.79727 20.5088 8.20578V9.7686C20.5088 9.88865 20.5124 10.0087 20.5296 10.1151H20.3963L18.5894 8.14378V9.55885C18.5894 9.85757 18.6486 9.96033 18.9191 9.96033H18.9785V10.0638C18.8279 10.0638 18.6772 10.0503 18.5261 10.0503C18.3687 10.0503 18.207 10.0638 18.049 10.0638V9.96033H18.0982C18.3402 9.96033 18.4137 9.79924 18.4137 9.52484V8.07841C18.4137 7.88639 18.252 7.76971 18.0947 7.76971H18.049V7.66667C18.1822 7.66667 18.3191 7.6803 18.4521 7.6803C18.5575 7.6803 18.6595 7.66667 18.7647 7.66667L20.3265 9.38691ZM21.3993 7.83831C21.1357 7.83831 21.1258 7.90017 21.0731 8.15052H20.968C20.9816 8.05451 20.9994 7.95851 21.0101 7.85869C21.0243 7.76238 21.031 7.66667 21.031 7.56714H21.1152C21.1435 7.67033 21.2311 7.66667 21.3264 7.66667H23.1364C23.2313 7.66667 23.3188 7.6633 23.3261 7.56011L23.4099 7.57388C23.3962 7.66667 23.382 7.75916 23.3714 7.85209C23.3649 7.94487 23.3649 8.03766 23.3649 8.13015L23.2595 8.16826C23.2523 8.04132 23.2346 7.83831 22.9998 7.83831H22.4244V9.66526C22.4244 9.93013 22.5473 9.96033 22.7154 9.96033H22.782V10.0638C22.6453 10.0638 22.3995 10.0503 22.2103 10.0503C21.9998 10.0503 21.754 10.0638 21.6169 10.0638V9.96033H21.6836C21.8772 9.96033 21.9749 9.94347 21.9749 9.67245V7.83831H21.3993ZM23.522 9.96033H23.5713C23.6976 9.96033 23.831 9.94362 23.831 9.76479V7.96583C23.831 7.78672 23.6976 7.76971 23.5713 7.76971H23.522V7.66667C23.7356 7.66667 24.1014 7.68015 24.3955 7.68015C24.6907 7.68015 25.0551 7.66667 25.2936 7.66667C25.2876 7.81413 25.291 8.04118 25.3012 8.19215L25.1955 8.21971C25.1785 7.99662 25.1366 7.81808 24.7679 7.81808H24.2806V8.71749H24.6976C24.908 8.71749 24.954 8.6011 24.9748 8.41524H25.0798C25.0729 8.54951 25.0694 8.68334 25.0694 8.81701C25.0694 8.94791 25.0729 9.07822 25.0798 9.20867L24.9748 9.22905C24.954 9.02325 24.9434 8.88928 24.7009 8.88928H24.2806V9.6893C24.2806 9.91254 24.4833 9.91254 24.708 9.91254C25.1293 9.91254 25.315 9.88484 25.4204 9.49391L25.5185 9.51751C25.4727 9.7 25.4308 9.88147 25.3996 10.0638C25.1746 10.0638 24.7712 10.0503 24.4557 10.0503C24.1396 10.0503 23.722 10.0638 23.522 10.0638V9.96033ZM25.9921 8.03048C25.9921 7.77997 25.8518 7.76971 25.7427 7.76971H25.6795V7.66652C25.7919 7.66652 26.0093 7.6803 26.2235 7.6803C26.4338 7.6803 26.6024 7.66652 26.7883 7.66652C27.2301 7.66652 27.6236 7.7832 27.6236 8.2713C27.6236 8.57985 27.4132 8.76879 27.1359 8.87579L27.7358 9.75424C27.8342 9.8995 27.904 9.94024 28.0762 9.96018V10.0638C27.9603 10.0638 27.8479 10.0503 27.7323 10.0503C27.6236 10.0503 27.511 10.0638 27.4027 10.0638C27.1325 9.71701 26.9003 9.34616 26.6725 8.95069H26.4414V9.68593C26.4414 9.95065 26.5674 9.96018 26.7285 9.96018H26.7919V10.0638C26.5915 10.0638 26.3887 10.0503 26.1885 10.0503C26.0198 10.0503 25.8549 10.0638 25.6795 10.0638V9.96018H25.7427C25.873 9.96018 25.9921 9.90257 25.9921 9.77534V8.03048ZM26.4414 8.82698H26.6128C26.964 8.82698 27.153 8.69682 27.153 8.29139C27.153 7.98621 26.9532 7.79038 26.6406 7.79038C26.5352 7.79038 26.4902 7.80093 26.4414 7.80401V8.82698ZM30.4585 9.38691L30.4648 9.38017V8.09262C30.4648 7.8109 30.2651 7.76971 30.16 7.76971H30.083V7.66667C30.2479 7.66667 30.4088 7.6803 30.5741 7.6803C30.7182 7.6803 30.8614 7.66667 31.0064 7.66667V7.76971H30.9533C30.8061 7.76971 30.6411 7.79727 30.6411 8.20578V9.7686C30.6411 9.88865 30.6444 10.0087 30.6617 10.1151H30.5287L28.7217 8.14378V9.55885C28.7217 9.85757 28.7812 9.96033 29.0514 9.96033H29.111V10.0638C28.9603 10.0638 28.8093 10.0503 28.6587 10.0503C28.5002 10.0503 28.3389 10.0638 28.1812 10.0638V9.96033H28.2299C28.4723 9.96033 28.546 9.79924 28.546 9.52484V8.07841C28.546 7.88639 28.3846 7.76971 28.2269 7.76971H28.1812V7.66667C28.314 7.66667 28.4515 7.6803 28.5848 7.6803C28.6892 7.6803 28.7914 7.66667 28.897 7.66667L30.4585 9.38691ZM31.5706 9.57277C31.5349 9.6893 31.4927 9.77915 31.4927 9.84042C31.4927 9.94362 31.6402 9.96033 31.7557 9.96033H31.7949V10.0638C31.6543 10.0563 31.5109 10.0505 31.3696 10.0505C31.2435 10.0505 31.1179 10.0563 30.9911 10.0638V9.96033H31.0124C31.1491 9.96033 31.2652 9.88147 31.317 9.73694L31.8791 8.16137C31.9242 8.03429 31.988 7.8625 32.0091 7.73497C32.1208 7.69774 32.2615 7.62914 32.3281 7.58781C32.3389 7.58414 32.345 7.58063 32.3561 7.58063C32.3666 7.58063 32.373 7.58063 32.381 7.59118C32.3915 7.61859 32.4013 7.64952 32.4127 7.67693L33.0583 9.4731C33.1002 9.59315 33.142 9.72008 33.1874 9.82357C33.2299 9.91972 33.3036 9.96033 33.4195 9.96033H33.4405V10.0638C33.2826 10.0563 33.1245 10.0505 32.9564 10.0505C32.7846 10.0505 32.6086 10.0563 32.4297 10.0638V9.96033H32.4686C32.5489 9.96033 32.6862 9.94699 32.6862 9.86095C32.6862 9.81653 32.6546 9.72389 32.6154 9.61367L32.4789 9.21541H31.6824L31.5706 9.57277ZM32.0826 8.05129H32.0754L31.7491 9.02325H32.4048L32.0826 8.05129ZM33.5949 7.83831C33.3316 7.83831 33.3211 7.90017 33.2684 8.15052H33.1629C33.1767 8.05451 33.1945 7.95851 33.2055 7.85869C33.2194 7.76238 33.226 7.66667 33.226 7.56714H33.3106C33.3385 7.67033 33.4265 7.66667 33.5209 7.66667H35.3318C35.4262 7.66667 35.5138 7.6633 35.521 7.56011L35.605 7.57388C35.5915 7.66667 35.5774 7.75916 35.567 7.85209C35.5592 7.94487 35.5592 8.03766 35.5592 8.13015L35.4542 8.16826C35.4477 8.04132 35.4301 7.83831 35.1949 7.83831H34.6193V9.66526C34.6193 9.93013 34.7425 9.96033 34.9105 9.96033H34.9773V10.0638C34.8404 10.0638 34.5949 10.0503 34.4053 10.0503C34.1952 10.0503 33.949 10.0638 33.8122 10.0638V9.96033H33.8789C34.0722 9.96033 34.1703 9.94347 34.1703 9.67245V7.83831H33.5949ZM35.7344 9.96033H35.7835C35.9102 9.96033 36.0429 9.94362 36.0429 9.76479V7.96583C36.0429 7.78672 35.9102 7.76971 35.7835 7.76971H35.7344V7.66667C35.8716 7.66667 36.0817 7.68015 36.2534 7.68015C36.4293 7.68015 36.6398 7.66667 36.805 7.66667V7.76971H36.7559C36.6293 7.76971 36.4957 7.78672 36.4957 7.96583V9.76479C36.4957 9.94362 36.6293 9.96033 36.7559 9.96033H36.805V10.0638C36.6363 10.0638 36.4257 10.0503 36.2505 10.0503C36.0783 10.0503 35.8716 10.0638 35.7344 10.0638V9.96033ZM38.2043 7.61537C38.9524 7.61537 39.5485 8.06888 39.5485 8.80031C39.5485 9.59022 38.9695 10.1153 38.2224 10.1153C37.4779 10.1153 36.9098 9.62085 36.9098 8.88254C36.9098 8.16841 37.4746 7.61537 38.2043 7.61537ZM38.2573 9.96414C38.9382 9.96414 39.0567 9.3765 39.0567 8.87594C39.0567 8.37376 38.7803 7.76619 38.1976 7.76619C37.5833 7.76619 37.4011 8.30209 37.4011 8.76175C37.4011 9.3765 37.6888 9.96414 38.2573 9.96414ZM41.913 9.38691L41.9202 9.38017V8.09262C41.9202 7.8109 41.7196 7.76971 41.6143 7.76971H41.5383V7.66667C41.7026 7.66667 41.8642 7.6803 42.0285 7.6803C42.173 7.6803 42.3168 7.66667 42.4609 7.66667V7.76971H42.4078C42.2608 7.76971 42.0956 7.79727 42.0956 8.20578V9.7686C42.0956 9.88865 42.0989 10.0087 42.1167 10.1151H41.9835L40.1761 8.14378V9.55885C40.1761 9.85757 40.2358 9.96033 40.5057 9.96033H40.5656V10.0638C40.4147 10.0638 40.2641 10.0503 40.1132 10.0503C39.9553 10.0503 39.7934 10.0638 39.6354 10.0638V9.96033H39.685C39.9274 9.96033 40.0004 9.79924 40.0004 9.52484V8.07841C40.0004 7.88639 39.8398 7.76971 39.6812 7.76971H39.6354V7.66667C39.769 7.66667 39.9059 7.6803 40.039 7.6803C40.1442 7.6803 40.2457 7.66667 40.3513 7.66667L41.913 9.38691ZM43.0246 9.57277C42.9902 9.6893 42.9476 9.77915 42.9476 9.84042C42.9476 9.94362 43.0954 9.96033 43.2105 9.96033H43.2497V10.0638C43.1092 10.0563 42.9651 10.0505 42.8248 10.0505C42.6981 10.0505 42.5723 10.0563 42.4465 10.0638V9.96033H42.4664C42.6037 9.96033 42.72 9.88147 42.7718 9.73694L43.334 8.16137C43.3794 8.03429 43.4429 7.8625 43.4633 7.73497C43.5758 7.69774 43.716 7.62914 43.7832 7.58781C43.7932 7.58414 43.8003 7.58063 43.8109 7.58063C43.8214 7.58063 43.8281 7.58063 43.8352 7.59118C43.8458 7.61859 43.8566 7.64952 43.8672 7.67693L44.5125 9.4731C44.5545 9.59315 44.5965 9.72008 44.6426 9.82357C44.6847 9.91972 44.7587 9.96033 44.8742 9.96033H44.8956V10.0638C44.7374 10.0563 44.5794 10.0505 44.4108 10.0505C44.2393 10.0505 44.0634 10.0563 43.8845 10.0638V9.96033H43.9232C44.0034 9.96033 44.1412 9.94699 44.1412 9.86095C44.1412 9.81653 44.1093 9.72389 44.0702 9.61367L43.9339 9.21541H43.1372L43.0246 9.57277ZM43.5374 8.05129H43.5304L43.2036 9.02325H43.8603L43.5374 8.05129ZM45.7797 9.72712C45.7797 9.86476 45.8772 9.90565 45.9895 9.91972C46.1334 9.93013 46.2913 9.93013 46.4532 9.91269C46.6003 9.89539 46.7266 9.81316 46.7896 9.72712C46.8456 9.65149 46.8771 9.55548 46.8985 9.47984H47.0002C46.9617 9.67552 46.9124 9.86827 46.87 10.0638C46.5621 10.0638 46.2522 10.0505 45.9443 10.0505C45.635 10.0505 45.3266 10.0638 45.0178 10.0638V9.96033H45.0662C45.193 9.96033 45.3302 9.94362 45.3302 9.73049V7.96569C45.3302 7.78672 45.193 7.76971 45.0662 7.76971H45.0178V7.66667C45.2034 7.66667 45.3861 7.6803 45.5718 7.6803C45.7514 7.6803 45.9265 7.66667 46.1056 7.66667V7.76971H46.0174C45.8844 7.76971 45.7797 7.77352 45.7797 7.95513V9.72712Z" fill="#1A1918"/></svg>