<svg xmlns="http://www.w3.org/2000/svg" width="80" height="80" viewBox="0 0 80 80" fill="none">
<path d="M67.7231 50.5494C64.643 55.3822 60.5526 59.0005 55.3042 61.2558C54.22 61.7267 52.9633 61.8506 51.8052 62.1232C52.6183 59.2484 53.4315 56.3735 54.2693 53.5234C54.4171 52.9782 54.22 52.5817 53.9243 52.1603C53.0126 50.8468 52.1255 49.5085 51.2384 48.195C48.8236 44.6015 48.8236 44.6015 44.4376 44.8245C44.3637 44.7997 44.2897 44.7502 44.2158 44.7502C44.2158 32.5072 44.2158 20.2643 44.2158 8.0462C47.6902 7.8975 50.992 8.641 54.2446 9.83059C54.4171 9.90494 54.5403 10.0784 54.7128 10.2023C52.0269 11.838 49.3411 13.4985 46.6553 15.1094C46.1624 15.4068 46.1871 15.8033 46.1871 16.2494C46.1871 18.7278 46.2117 21.1813 46.1871 23.6596C46.1871 24.2544 46.3596 24.651 46.8277 24.9979C48.9715 26.5345 51.066 28.0711 53.1851 29.6324C53.6532 29.9794 54.0721 30.0785 54.6635 29.8802C57.0537 29.0376 59.4685 28.2445 61.8586 27.4267C62.2036 27.3028 62.5485 27.2284 62.6718 26.7575C63.3617 23.734 64.372 20.76 64.9141 17.6869C65.4315 17.439 65.5547 17.9347 65.7518 18.1825C70.1625 23.6101 72.1831 29.8059 71.986 36.7947C69.4972 34.936 66.9839 33.102 64.4952 31.2433C64.0024 30.8716 63.5835 30.7229 62.9428 30.9459C60.6019 31.7885 58.2364 32.6064 55.8709 33.3499C55.3042 33.5481 55.0085 33.8455 54.8113 34.3908C53.9982 36.9434 53.2097 39.4713 52.3473 41.9992C52.1255 42.6188 52.2487 43.0649 52.6183 43.5606C53.9489 45.4689 55.2795 47.402 56.5362 49.3846C56.9305 50.0042 57.374 50.2273 58.1132 50.2273C61.2919 50.3016 64.5198 50.252 67.7231 50.5494Z" fill="#2E364B"/>
<path d="M44.215 8.04845C44.215 20.2914 44.215 32.5343 44.215 44.7524C42.9583 44.7772 41.677 44.802 40.4203 44.7772C39.8782 44.7772 39.5332 44.9507 39.2129 45.3968C37.7098 47.5034 36.1821 49.5852 34.6297 51.6422C34.2355 52.1626 34.2108 52.6335 34.3833 53.2283C34.9501 54.9879 35.4922 56.7475 35.9603 58.5319C36.3053 59.7711 36.872 60.9854 36.9706 62.299C29.8987 60.7376 24.8227 56.4253 20.9295 50.5269C23.9849 50.4278 27.065 50.3286 30.1205 50.2791C30.8597 50.2791 31.3032 50.0312 31.7221 49.4364C33.1513 47.429 34.6051 45.4463 36.0835 43.4885C36.4778 42.968 36.5271 42.5219 36.3299 41.9271C35.4922 39.4736 34.679 37.02 33.9151 34.5665C33.718 33.8974 33.3484 33.5752 32.7077 33.3769C30.4654 32.6582 28.1985 31.8899 25.9808 31.0721C25.217 30.7995 24.7241 30.9482 24.1081 31.419C21.6687 33.2778 19.18 35.0622 16.7159 36.8714C16.5188 30.0807 18.4407 23.9593 22.6297 18.6061C22.95 18.2096 23.1964 17.6891 23.7631 17.5404C24.5024 20.564 25.2909 23.6123 26.0301 26.6854C26.1533 27.2307 26.5722 27.3546 26.9911 27.5033C29.3073 28.2963 31.6235 29.0646 33.9398 29.8825C34.5312 30.1055 35.024 30.056 35.5168 29.6594C37.6113 28.0981 39.7304 26.5615 41.8495 25.025C42.293 24.7028 42.4901 24.3806 42.4901 23.8106C42.4655 21.2579 42.4655 18.7052 42.4901 16.1773C42.4901 15.6569 42.3423 15.3595 41.8987 15.0869C39.2375 13.476 36.601 11.8403 33.9644 10.2294C35.9603 9.03978 38.2273 8.69281 40.4696 8.32106C41.677 8.07323 42.9337 7.92453 44.215 8.04845Z" fill="#495D8C"/>
<path d="M67.7235 50.5507C64.4956 50.2533 61.2676 50.3029 58.0397 50.2533C57.3005 50.2533 56.8569 50.0303 56.4627 49.4107C55.206 47.4528 53.8754 45.5197 52.5448 43.5867C52.1998 43.0662 52.0766 42.6449 52.2738 42.0253C53.1362 39.4974 53.9493 36.9695 54.7378 34.4169C54.9103 33.8468 55.206 33.5494 55.7974 33.376C58.1629 32.6077 60.5284 31.8146 62.8693 30.972C63.4853 30.7489 63.9288 30.8976 64.4217 31.2694C66.9104 33.1529 69.3991 34.9869 71.9125 36.8208C71.5921 41.257 70.6558 45.495 68.3395 49.3611C68.1178 49.7577 67.9453 50.1542 67.7235 50.5507Z" fill="#CFD5F0"/>
<path d="M16.6904 36.8492C19.1545 35.04 21.6432 33.2309 24.0827 31.3969C24.6987 30.926 25.1915 30.7773 25.9554 31.0499C28.173 31.8678 30.4153 32.6113 32.6823 33.3548C33.3229 33.553 33.6926 33.8752 33.8897 34.5444C34.6535 37.0227 35.4667 39.4762 36.3045 41.905C36.5016 42.4998 36.477 42.9459 36.0581 43.4663C34.5796 45.4242 33.1012 47.4069 31.6967 49.4143C31.2778 50.0091 30.8342 50.2322 30.095 50.2569C27.0396 50.3065 23.9595 50.4304 20.904 50.5048C18.5878 46.7873 17.134 42.7972 16.9122 38.3858C16.8876 37.8901 16.7644 37.3697 16.6904 36.8492Z" fill="#EAEAF0"/>
<path d="M33.9386 10.1836C36.5751 11.7945 39.2363 13.4302 41.8729 15.0411C42.3164 15.3137 42.4643 15.6359 42.4643 16.1316C42.4396 18.6842 42.4396 21.2369 42.4643 23.7648C42.4643 24.3348 42.2672 24.6818 41.8236 24.9792C39.7045 26.5157 37.5854 28.0523 35.4909 29.6136C34.9735 30.0102 34.5053 30.035 33.9139 29.8367C31.5977 29.0189 29.2815 28.2506 26.9652 27.4575C26.5464 27.3088 26.1521 27.1849 26.0043 26.6397C25.265 23.5665 24.5012 20.5182 23.7373 17.4451C26.4971 14.1489 29.8482 11.6458 33.9386 10.1836Z" fill="#EAEAF0"/>
<path d="M64.867 17.715C64.3249 20.7881 63.3146 23.7373 62.6246 26.7857C62.5261 27.2318 62.1565 27.3309 61.8115 27.4548C59.4213 28.2727 57.0066 29.0657 54.6164 29.9084C54.0497 30.1066 53.6061 30.0075 53.138 29.6605C51.0435 28.0992 48.9244 26.5378 46.7806 25.0261C46.2878 24.6791 46.1153 24.2826 46.14 23.6878C46.1646 21.2094 46.1646 18.7559 46.14 16.2776C46.14 15.8315 46.1153 15.4349 46.6081 15.1375C49.3186 13.5266 51.9798 11.8662 54.6657 10.2305C58.6082 11.5935 61.7869 14.0471 64.5713 17.0954C64.7684 17.2193 64.793 17.492 64.867 17.715Z" fill="#CFD5F0"/>
<path d="M36.9458 62.3043C36.8472 60.9908 36.2805 59.8012 35.9355 58.5373C35.4673 56.7529 34.9006 54.9933 34.3585 53.2337C34.1614 52.6389 34.186 52.1928 34.6049 51.6476C36.1573 49.5905 37.685 47.5087 39.1881 45.4022C39.5084 44.9561 39.8534 44.7826 40.3955 44.7826C41.6521 44.8074 42.9335 44.7578 44.1901 44.7578C44.2641 44.7826 44.338 44.8074 44.4119 44.8322C44.4119 51.0032 44.4119 57.1494 44.4119 63.3205C41.8986 63.37 39.4098 62.9983 36.9458 62.3043Z" fill="#EAEAF0"/>
<path d="M44.4365 63.3379C44.4365 57.1669 44.4365 51.0207 44.4365 44.8496C48.8226 44.6266 48.8226 44.6266 51.2374 48.2202C52.1244 49.5337 53.0115 50.872 53.9232 52.1855C54.2189 52.6068 54.416 53.0033 54.2682 53.5485C53.4304 56.4234 52.6173 59.2735 51.8041 62.1483C49.4386 63.0653 46.9499 63.3379 44.4365 63.3379Z" fill="#CFD5F0"/>
<path d="M21.8665 60.1133C21.8912 60.6089 21.8173 61.055 21.423 61.3772C18.269 64.0538 15.5585 67.2013 12.5523 70.0761C12.4045 70.2248 12.2566 70.3735 12.1088 70.4974C11.2464 71.1914 10.2607 71.1666 9.57079 70.3983C8.85621 69.6052 8.78229 68.6883 9.52151 67.9448C11.6899 65.7638 13.7351 63.459 16.076 61.4763C17.0369 60.6585 17.8994 59.6919 18.8111 58.7997C19.4517 58.1554 20.2402 58.1802 20.9795 58.5024C21.6448 58.7997 21.9405 59.4193 21.8665 60.1133Z" fill="#BA001C"/>
<path d="M16.421 54.4632C16.421 55.1076 16.1746 55.5537 15.7803 55.9502C14.6222 57.115 13.4887 58.2798 12.306 59.4199C11.3942 60.3121 10.384 60.3368 9.59547 59.5438C8.83161 58.7755 8.83161 57.7346 9.71867 56.8176C10.8768 55.6032 12.0595 54.4136 13.2669 53.2488C13.8337 52.7036 14.5236 52.5053 15.2875 52.8523C16.0021 53.224 16.347 53.7693 16.421 54.4632Z" fill="#BA001C"/>
<path d="M27.4842 65.3905C27.4595 66.0597 27.1639 66.5306 26.745 66.9519C25.6361 68.0423 24.5519 69.1576 23.4431 70.2481C22.4821 71.1898 21.4472 71.2394 20.6587 70.4215C19.8948 69.6285 19.9441 68.6371 20.8312 67.6954C21.9893 66.481 23.1721 65.2914 24.3795 64.1266C24.9462 63.5814 25.6361 63.4079 26.4 63.7796C27.0899 64.1266 27.4349 64.6966 27.4842 65.3905Z" fill="#BA001C"/>
</svg>