<svg xmlns="http://www.w3.org/2000/svg" width="100" height="100" viewBox="0 0 100 100" fill="none">
<path d="M78.2843 21.7157C70.7294 14.1608 60.6842 10 50 10C39.3152 10 29.2706 14.1608 21.7157 21.7157C14.1608 29.2706 10 39.3152 10 50C10 60.6842 14.1608 70.7294 21.7157 78.2843C29.2706 85.8392 39.3152 90 50 90C60.6842 90 70.7294 85.8392 78.2843 78.2843C85.8392 70.7294 90 60.6842 90 50C90 39.3152 85.8392 29.2706 78.2843 21.7157V21.7157ZM30.0531 79.1229C31.7261 69.4904 40.0732 62.3853 50 62.3853C59.9274 62.3853 68.2739 69.4904 69.9469 79.1229C64.2676 83.0249 57.3962 85.3125 50 85.3125C42.6038 85.3125 35.7324 83.0249 30.0531 79.1229ZM37.2815 44.9792C37.2815 37.9657 42.9871 32.2607 50 32.2607C57.0129 32.2607 62.7185 37.9663 62.7185 44.9792C62.7185 51.9922 57.0129 57.6978 50 57.6978C42.9871 57.6978 37.2815 51.9922 37.2815 44.9792V44.9792ZM74.007 75.8716C72.7454 71.3873 70.2399 67.3187 66.7279 64.1406C64.5734 62.1906 62.121 60.6519 59.4843 59.5673C64.2499 56.4587 67.4066 51.0809 67.4066 44.9792C67.4066 35.3815 59.5978 27.5732 50 27.5732C40.4022 27.5732 32.594 35.3815 32.594 44.9792C32.594 51.0809 35.7507 56.4587 40.5157 59.5673C37.8796 60.6519 35.4266 62.1899 33.2721 64.14C29.7607 67.3181 27.2546 71.3867 25.993 75.871C19.0442 69.4177 14.6875 60.2087 14.6875 50C14.6875 30.5286 30.5286 14.6875 50 14.6875C69.4714 14.6875 85.3125 30.5286 85.3125 50C85.3125 60.2094 80.9558 69.4183 74.007 75.8716V75.8716Z" fill="white"/>
</svg>