<svg xmlns="http://www.w3.org/2000/svg" width="100" height="100" viewBox="0 0 100 100" fill="none">
<path fill-rule="evenodd" clip-rule="evenodd" d="M10.0002 49.7995C9.93557 28.6477 26.7443 11.0523 48.0444 10.0463C71.454 8.9404 90.7074 27.8057 89.98 50.9452C89.3015 72.5319 71.1485 89.6787 49.3778 89.3489C43.2088 89.2555 37.3798 87.7745 32.1902 85.2103L11.9908 89.9573C10.883 90.2175 9.87732 89.249 10.107 88.1429L14.3538 67.6954C11.5878 62.3226 10.0199 56.2419 10.0002 49.7995ZM50 80.7438C58.3658 80.7438 66.2311 77.5123 72.1467 71.6445C78.0094 65.8294 81.3203 57.9005 81.3205 49.6761C81.3203 41.378 78.0625 33.5765 72.1469 27.7087C66.2313 21.8411 58.3664 18.6096 50.0006 18.6094C41.7095 18.6094 33.7159 21.8935 27.8532 27.7089C21.9376 33.5768 18.6798 41.3783 18.6798 49.6767C18.6798 54.6468 19.8252 59.3918 22.084 63.7799L23.4699 66.4719L20.8631 79.0242L33.2474 76.1137L36.0605 77.5037C40.4117 79.6536 45.1015 80.7438 50 80.7438ZM61.7265 55.8997L69.6369 58.139C71.5318 58.6755 72.3656 60.855 71.3097 62.4962C69.7608 64.9032 67.3067 67.8431 64.2358 68.5764C58.8216 69.8694 50.506 68.6071 40.122 59.0519C31.1335 50.7811 28.7566 43.893 29.318 38.4288C29.6365 35.3296 32.256 32.5321 34.4638 30.6912C35.9689 29.4362 38.2728 29.9536 39.07 31.731L42.3981 39.152C42.8356 40.1277 42.696 41.2611 42.0343 42.1051L40.3455 44.2592C39.6334 45.1676 39.5375 46.4123 40.1174 47.4079C42.1277 50.8593 49.9993 57.7595 53.7414 59.2525C54.821 59.6831 56.0587 59.4198 56.8743 58.6005L58.8088 56.6575C59.5666 55.8962 60.6865 55.6054 61.7265 55.8997Z" fill="white"/>
</svg>