<svg xmlns="http://www.w3.org/2000/svg" width="16" height="17" viewBox="0 0 16 17" fill="none">
<path d="M0.2 7.33333C0.0895429 7.33333 0 7.24379 0 7.13333V0.2C0 0.0895429 0.0895431 0 0.2 0H15.8C15.9105 0 16 0.0895431 16 0.2V7.13333C16 7.24379 15.9105 7.33333 15.8 7.33333H0.2ZM1.33333 5.8C1.33333 5.91046 1.42288 6 1.53333 6H14.4667C14.5771 6 14.6667 5.91046 14.6667 5.8V1.53333C14.6667 1.42288 14.5771 1.33333 14.4667 1.33333H1.53333C1.42288 1.33333 1.33333 1.42288 1.33333 1.53333V5.8Z" fill="#4A4A4A"/>
<path d="M0.2 16.0192C0.0895429 16.0192 0 15.9297 0 15.8192V8.89922C0 8.78876 0.0895431 8.69922 0.2 8.69922H15.7709C15.8814 8.69922 15.9709 8.78876 15.9709 8.89922V15.8192C15.9709 15.9297 15.8814 16.0192 15.7709 16.0192H0.2ZM1.33091 14.4883C1.33091 14.5988 1.42045 14.6883 1.53091 14.6883H14.44C14.5505 14.6883 14.64 14.5988 14.64 14.4883V10.2301C14.64 10.1197 14.5505 10.0301 14.44 10.0301H1.53091C1.42045 10.0301 1.33091 10.1197 1.33091 10.2301V14.4883Z" fill="#4A4A4A"/>
</svg>