<svg xmlns="http://www.w3.org/2000/svg" width="80" height="80" viewBox="0 0 80 80" fill="none">
<path d="M56.3201 45.4548C51.869 45.4548 48.2601 49.0613 48.2601 53.5092C48.2601 57.9572 51.869 61.5636 56.3201 61.5636C60.7712 61.5636 64.3802 57.9572 64.3802 53.5092C64.3802 49.0613 60.7712 45.4548 56.3201 45.4548ZM56.3201 57.5364C54.0946 57.5364 52.2901 55.7332 52.2901 53.5092C52.2901 51.2853 54.0946 49.482 56.3201 49.482C58.5457 49.482 60.3502 51.2853 60.3502 53.5092C60.3502 55.7332 58.5457 57.5364 56.3201 57.5364Z" fill="#EA0029"/>
<path d="M28.772 45.4548C24.3209 45.4548 20.7119 49.0613 20.7119 53.5092C20.7119 57.9572 24.3209 61.5636 28.772 61.5636C33.2231 61.5636 36.8321 57.9572 36.8321 53.5092C36.8321 49.0613 33.2231 45.4548 28.772 45.4548ZM28.772 57.5364C26.5464 57.5364 24.742 55.7332 24.742 53.5092C24.742 51.2853 26.5464 49.482 28.772 49.482C30.9975 49.482 32.802 51.2853 32.802 53.5092C32.802 55.7332 30.9975 57.5364 28.772 57.5364Z" fill="#EA0029"/>
<path d="M61.754 22.3936C61.4131 21.7124 60.7114 21.2917 59.9495 21.2917H49.343V25.3189H58.7064L64.2001 36.2183L67.8091 34.4151L61.754 22.3936Z" fill="#EA0029"/>
<path d="M35.0275 55.5929H50.2655V51.5456H35.0275V55.5929Z" fill="#EA0029"/>
<path d="M22.7171 51.5456H15.7397C14.6169 51.5456 13.7147 52.4473 13.7147 53.5693C13.7147 54.6913 14.6169 55.5929 15.7397 55.5929H22.7171C23.8399 55.5929 24.7422 54.6913 24.7422 53.5693C24.7422 52.4473 23.8399 51.5456 22.7171 51.5456Z" fill="#EA0029"/>
<path d="M71.5589 39.244L67.589 34.1348C67.2081 33.6339 66.6266 33.3534 66.0051 33.3534H51.3686V19.2682C51.3686 18.1462 50.4663 17.2446 49.3435 17.2446H15.7397C14.6169 17.2446 13.7147 18.1462 13.7147 19.2682C13.7147 20.3702 14.6169 21.2919 15.7397 21.2919H47.3185V35.3971C47.3185 36.5191 48.2207 37.4207 49.3435 37.4207H65.0226L67.9499 41.2075V51.5861H62.376C61.2532 51.5861 60.351 52.4877 60.351 53.6097C60.351 54.7317 61.2532 55.6333 62.376 55.6333H69.975C71.0978 55.6333 72 54.7317 72 53.6097V40.5263C71.9799 40.0254 71.8196 39.5846 71.5589 39.244Z" fill="#EA0029"/>
<path d="M22.596 41.3475H13.3329C12.2101 41.3475 11.3279 42.2491 11.3279 43.3711C11.3279 44.4931 12.2301 45.3948 13.3329 45.3948H22.596C23.7188 45.3948 24.621 44.4931 24.621 43.3711C24.601 42.2491 23.6987 41.3475 22.596 41.3475Z" fill="#EA0029"/>
<path d="M27.2279 33.4333H10.025C8.90225 33.4333 8 34.3349 8 35.4569C8 36.5789 8.90225 37.4805 10.025 37.4805H27.2279C28.3507 37.4805 29.253 36.5789 29.253 35.4569C29.253 34.3349 28.3307 33.4333 27.2279 33.4333Z" fill="#EA0029"/>
<path d="M30.5166 25.4993H13.3137C12.1909 25.4993 11.3087 26.4009 11.3087 27.5229C11.3087 28.6449 12.2109 29.5465 13.3137 29.5465H30.5166C31.6394 29.5465 32.5416 28.6449 32.5416 27.5229C32.5416 26.4009 31.6394 25.4993 30.5166 25.4993Z" fill="#EA0029"/>
<path d="M48 20V37H68V52.5H62L57.5 48H51V52H36L33 48L25 47.4286L22.5 52H17L22 20H48Z" fill="#EA0029"/>
</svg>