<svg xmlns="http://www.w3.org/2000/svg" width="100" height="100" viewBox="0 0 100 100" fill="none">
<path d="M89.501 22.7358C89.0059 22.0113 88.2093 21.5634 87.3439 21.5257L22.2334 19.1644C20.6941 19.0956 19.4078 20.3091 19.342 21.8735C19.2766 23.4374 20.463 24.7588 21.995 24.826L83.4734 27.0277L73.6391 58.3596H29.8755L21.9689 14.3994C21.7951 13.4359 21.1473 12.6321 20.2539 12.2742L13.7908 10.1962C12.3636 9.62566 10.7531 10.3415 10.1926 11.7971C9.63307 13.2535 10.3339 14.899 11.7603 15.4713L16.7881 16.9734L24.8342 61.7051C25.0767 63.0499 26.2244 64.0266 27.564 64.0266H28.8986L25.8509 72.6711C25.5958 73.3953 25.7009 74.1995 26.135 74.8285C26.5685 75.4578 27.2736 75.8321 28.0263 75.8321H30.164C28.8394 77.3375 28.0263 79.3196 28.0263 81.4993C28.0263 86.1868 31.7616 90 36.3511 90C40.9407 90 44.6759 86.1868 44.6759 81.4993C44.6759 79.3198 43.8628 77.3375 42.5384 75.8321H60.6886C59.3634 77.3375 58.5505 79.3196 58.5505 81.4993C58.5505 86.1868 62.2847 90 66.8753 90C71.466 90 75.2001 86.1868 75.2001 81.4993C75.2001 79.3198 74.3872 77.3375 73.0629 75.8321H75.6626C76.94 75.8321 77.9751 74.775 77.9751 73.471C77.9751 72.1666 76.9398 71.1096 75.6626 71.1096H31.3166L33.8137 64.0258H75.6624C76.8692 64.0258 77.937 63.2297 78.3045 62.0573L89.8668 25.2207C90.1323 24.3799 89.9961 23.4607 89.501 22.7358ZM36.3513 85.2783C34.3108 85.2783 32.6513 83.584 32.6513 81.5003C32.6513 79.4166 34.3108 77.7221 36.3513 77.7221C38.3919 77.7221 40.0512 79.4166 40.0512 81.5003C40.0512 83.584 38.3919 85.2783 36.3513 85.2783ZM66.8753 85.2783C64.8347 85.2783 63.1754 83.584 63.1754 81.5003C63.1754 79.4166 64.8347 77.7221 66.8753 77.7221C68.9158 77.7221 70.5751 79.4166 70.5751 81.5003C70.5751 83.584 68.9158 85.2783 66.8753 85.2783Z" fill="white"/>
</svg>