<svg xmlns="http://www.w3.org/2000/svg" width="401" height="81" viewBox="0 0 401 81" fill="none">
<path d="M72.2453 60.2093C71.7486 61.0371 71.0443 61.7491 70.1594 62.2387L39.3507 79.5424C37.5809 80.5216 35.4138 80.5216 33.6621 79.5335L2.8443 62.2387C1.08354 61.2507 0.00902953 59.426 0 57.4499V22.8424C0 21.8455 0.279915 20.902 0.76751 20.0653C1.2551 19.2375 1.96844 18.5343 2.8443 18.0448L33.6621 0.741016C35.4228 -0.247006 37.5899 -0.247006 39.3507 0.741016L70.1594 18.0448C71.9202 19.0328 73.0037 20.8575 73.0037 22.8424V57.4499C73.0037 58.4379 72.7328 59.3904 72.2453 60.2093ZM66.2587 58.2955C68.2452 58.7762 68.9766 57.5923 67.5499 56.1415L64.1096 52.6255C62.5656 51.05 62.1141 48.2729 62.1141 46.466V28.9041C62.1141 27.0972 60.7958 24.8719 59.1795 23.9551L39.3687 12.8376C37.7615 11.9297 35.1158 11.9297 33.4995 12.8376L13.6707 23.964C12.0544 24.8719 10.7361 27.1061 10.7361 28.913V51.1657C10.7361 52.9816 12.0544 55.2068 13.6707 56.1148L33.4995 67.2411C35.1068 68.1401 37.7615 68.1401 39.3687 67.2411L55.4232 58.2243C57.0395 57.3164 59.1976 56.7645 61.3918 57.2541L66.2587 58.2955Z" fill="#E30521"/>
<path d="M137.294 52.8307C136.247 51.905 134.974 51.4154 133.628 51.4154C132.165 51.4154 130.847 51.9495 129.854 52.9286C128.238 54.4596 126.377 55.6613 124.319 56.5158C122.287 57.3703 120.048 57.7975 117.664 57.7975C115.289 57.7975 113.041 57.3525 110.964 56.4713C108.869 55.5901 107.018 54.3439 105.447 52.804C103.876 51.2552 102.621 49.4305 101.727 47.3565C100.833 45.3271 100.381 43.0929 100.381 40.7608C100.381 38.4198 100.833 36.1768 101.736 34.0939C102.63 32.0021 103.885 30.1596 105.456 28.6108C107.027 27.062 108.878 25.8248 110.973 24.9347C113.041 24.0535 115.298 23.6084 117.673 23.6084C120.048 23.6084 122.287 24.0357 124.328 24.8902C126.396 25.7447 128.265 26.8929 129.881 28.2815C130.901 29.2606 132.193 29.7769 133.637 29.7769C134.919 29.7769 136.138 29.3051 137.141 28.4239C138.224 27.4715 138.793 26.2609 138.793 24.908C138.793 23.8309 138.242 22.6738 136.996 21.1517C135.976 19.9056 134.54 18.6594 132.716 17.4489C130.928 16.265 128.797 15.2147 126.368 14.3068C123.849 13.381 120.996 12.9004 117.89 12.9004H117.808C113.826 13.0517 110.079 13.8795 106.666 15.3571C103.253 16.8347 100.246 18.8374 97.7358 21.303C95.2256 23.7864 93.2301 26.7149 91.8034 30.0172C90.3677 33.3284 89.6454 36.9423 89.6454 40.743C89.6454 44.6862 90.3948 48.3802 91.8576 51.7448C93.3204 55.0916 95.3611 58.029 97.9164 60.4768C100.463 62.9068 103.461 64.8294 106.811 66.2002C110.17 67.5709 113.826 68.2652 117.673 68.2652C120.96 68.2652 123.958 67.838 126.558 67.0013C129.122 66.1735 131.326 65.1676 133.132 64.0105C135.001 62.7999 136.391 61.5894 137.375 60.2898C138.504 58.7856 139.01 57.6373 139.01 56.6048C139.001 55.1183 138.414 53.8098 137.294 52.8307Z" fill="white"/>
<path d="M179.85 31.3876C177.864 29.4383 175.543 27.8628 172.943 26.7146C170.297 25.5485 167.48 24.9521 164.572 24.9521H164.491C161.385 25.0768 158.459 25.7176 155.805 26.8659C153.141 28.023 150.793 29.5807 148.834 31.5123C146.874 33.4438 145.303 35.7403 144.202 38.3216C143.082 40.9207 142.522 43.7335 142.522 46.7064C142.522 49.7862 143.1 52.6791 144.247 55.296C145.385 57.904 146.983 60.2094 148.987 62.1143C150.974 64.0102 153.312 65.5234 155.922 66.5915C158.55 67.6596 161.403 68.2115 164.41 68.2115C167.48 68.2115 170.378 67.6418 173.042 66.5025C175.688 65.3721 178.026 63.8055 179.986 61.8472C181.945 59.889 183.507 57.5925 184.645 55.0201C185.801 52.4209 186.379 49.6171 186.379 46.7064C186.379 43.7246 185.783 40.8851 184.6 38.2593C183.426 35.6424 181.828 33.337 179.85 31.3876ZM164.401 59.2481C162.649 59.2481 160.988 58.9188 159.471 58.269C157.927 57.6192 156.563 56.7024 155.398 55.563C154.243 54.4237 153.313 53.0796 152.653 51.5575C151.994 50.0533 151.669 48.4244 151.669 46.6975C151.669 44.9707 152.003 43.324 152.662 41.793C153.322 40.2531 154.243 38.9002 155.398 37.7519C156.554 36.6126 157.927 35.7047 159.471 35.046C160.997 34.3962 162.649 34.0669 164.401 34.0669C166.152 34.0669 167.823 34.3962 169.376 35.046C170.938 35.6958 172.32 36.6037 173.475 37.7519C174.631 38.8913 175.552 40.2442 176.211 41.793C176.871 43.324 177.205 44.9796 177.205 46.6975C177.205 48.4155 176.871 50.0533 176.22 51.5575C175.552 53.0796 174.631 54.4237 173.475 55.5719C172.32 56.7113 170.938 57.6192 169.376 58.269C167.832 58.9188 166.152 59.2481 164.401 59.2481Z" fill="white"/>
<path d="M235.12 46.6975C235.12 43.7157 234.515 40.8762 233.332 38.2504C232.168 35.6513 230.569 33.3459 228.583 31.3876C226.605 29.4383 224.276 27.8628 221.675 26.7146C219.039 25.5485 216.212 24.9521 213.296 24.9521H213.224C210.117 25.0768 207.201 25.7176 204.528 26.8659C201.864 28.023 199.517 29.5807 197.557 31.5123C195.589 33.4527 194.027 35.7403 192.916 38.3216C191.796 40.9207 191.228 43.7335 191.228 46.7064C191.228 49.7862 191.805 52.6791 192.961 55.3049C194.108 57.9218 195.697 60.2094 197.702 62.1231C199.697 64.0191 202.027 65.5323 204.645 66.6004C207.273 67.6685 210.126 68.2204 213.133 68.2204C216.203 68.2204 219.102 67.6507 221.765 66.5114C224.411 65.3809 226.75 63.8144 228.718 61.8561C230.669 59.8979 232.24 57.6014 233.377 55.029C234.533 52.412 235.12 49.6082 235.12 46.6975ZM213.142 59.2481C211.391 59.2481 209.729 58.9187 208.212 58.269C206.677 57.6192 205.305 56.7024 204.14 55.563C202.984 54.4148 202.063 53.0707 201.395 51.5486C200.736 50.0443 200.402 48.4154 200.402 46.6886C200.402 44.9618 200.736 43.3151 201.395 41.7841C202.054 40.2442 202.984 38.8824 204.131 37.743C205.296 36.6037 206.659 35.6958 208.203 35.0371C209.729 34.3873 211.382 34.058 213.133 34.058C214.876 34.058 216.555 34.3873 218.109 35.0371C219.671 35.6869 221.052 36.5948 222.208 37.743C223.364 38.8824 224.285 40.2353 224.953 41.7752C225.612 43.3062 225.946 44.9618 225.946 46.6886C225.946 48.4065 225.621 50.0443 224.962 51.5486C224.294 53.0707 223.373 54.4148 222.217 55.5541C221.061 56.7024 219.68 57.6103 218.118 58.2601C216.573 58.9187 214.894 59.2481 213.142 59.2481Z" fill="white"/>
<path d="M346.382 61.8383C348.332 59.8801 349.903 57.5836 351.041 55.0112C352.188 52.412 352.775 49.6082 352.775 46.6975C352.775 43.7157 352.17 40.8762 350.996 38.2504C349.822 35.6513 348.224 33.337 346.246 31.3876C344.269 29.4383 341.939 27.8628 339.339 26.7146C336.693 25.5485 333.876 24.9521 330.968 24.9521H330.887C327.79 25.0768 324.865 25.7176 322.192 26.8659C319.528 28.023 317.18 29.5807 315.221 31.5123C313.262 33.4527 311.699 35.7403 310.58 38.3216C309.46 40.9118 308.891 43.7335 308.891 46.7064C308.891 49.7773 309.478 52.6702 310.625 55.3049C311.772 57.9218 313.37 60.2094 315.365 62.1231C317.352 64.0191 319.691 65.5323 322.309 66.6004C324.937 67.6685 327.79 68.2204 330.797 68.2204C333.858 68.2204 336.765 67.6507 339.429 66.5114C342.084 65.3631 344.422 63.7965 346.382 61.8383ZM330.797 59.2481C329.045 59.2481 327.384 58.9187 325.867 58.269C324.323 57.6192 322.959 56.7024 321.794 55.563C320.639 54.4237 319.718 53.0796 319.049 51.5575C318.39 50.0533 318.056 48.4243 318.056 46.6975C318.056 44.9707 318.39 43.324 319.049 41.793C319.709 40.2531 320.639 38.8913 321.785 37.7519C322.95 36.6126 324.314 35.7047 325.858 35.046C327.384 34.3962 329.045 34.0669 330.788 34.0669C332.54 34.0669 334.21 34.3962 335.763 35.046C337.325 35.6958 338.707 36.6037 339.863 37.7519C341.018 38.8913 341.939 40.2442 342.607 41.7841C343.267 43.3151 343.601 44.9707 343.601 46.6975C343.601 48.4154 343.267 50.0533 342.617 51.5575C341.948 53.0796 341.027 54.4237 339.872 55.563C338.707 56.7113 337.334 57.6103 335.772 58.269C334.228 58.9187 332.549 59.2481 330.797 59.2481Z" fill="white"/>
<path d="M392.92 66.8496C393.796 67.7843 394.934 68.2738 396.198 68.2738C397.372 68.2738 398.464 67.8288 399.367 66.9921C400.297 66.1286 400.785 65.0338 400.785 63.8411C400.785 62.7195 400.379 61.6692 399.584 60.7079L385.371 46.6085L399.376 32.6605L399.439 32.5893C400.27 31.6903 400.704 30.5776 400.704 29.3849C400.704 28.0319 400.189 26.8926 399.196 26.0737C398.311 25.3438 397.245 24.9521 396.117 24.9521C394.861 24.9521 393.769 25.3794 392.938 26.2072L378.97 40.1997L364.983 26.1894C364.161 25.3794 363.069 24.9521 361.822 24.9521C360.703 24.9521 359.637 25.326 358.734 26.047C357.696 26.8659 357.145 28.023 357.145 29.3938C357.145 30.4708 357.588 31.5301 358.445 32.5448L372.486 46.6263L358.482 60.5833L358.355 60.7257C357.56 61.687 357.154 62.7373 357.154 63.8589C357.154 65.0605 357.642 66.1465 358.572 67.0099C359.466 67.8466 360.558 68.2916 361.741 68.2916C363.014 68.2916 364.152 67.7932 365.019 66.8674L378.97 53.044L392.92 66.8496Z" fill="white"/>
<path d="M248.863 64.6057V12.8458C248.863 11.7688 248.411 10.8431 247.526 10.0865C246.65 9.3477 245.531 8.95605 244.276 8.95605C243.011 8.95605 241.91 9.3388 241.025 10.0865C240.14 10.8342 239.689 11.7688 239.689 12.8458V64.6057C239.689 65.6828 240.14 66.6174 241.025 67.3651C241.91 68.1217 243.011 68.4955 244.276 68.4955C245.531 68.4955 246.65 68.1039 247.526 67.3651C248.411 66.6174 248.863 65.6917 248.863 64.6057Z" fill="white"/>
<path d="M297.306 31.4224C295.32 29.4731 292.999 27.8976 290.389 26.7493C287.753 25.5744 284.936 24.9869 282.019 24.9869H281.938C278.832 25.1026 275.906 25.7435 273.242 26.9007C270.579 28.0489 268.231 29.6155 266.272 31.5381C265.928 31.8764 265.621 32.2324 265.305 32.5885V12.8458C265.305 11.7688 264.854 10.8431 263.969 10.0865C263.093 9.3477 261.973 8.95605 260.718 8.95605C259.445 8.95605 258.362 9.3388 257.468 10.0865C256.583 10.8342 256.131 11.7688 256.131 12.8458V64.6057C256.131 65.6828 256.574 66.6174 257.468 67.3651C258.353 68.1217 259.445 68.4955 260.718 68.4955C261.973 68.4955 263.093 68.1039 263.969 67.3651C264.854 66.6174 265.305 65.6828 265.305 64.6057V60.9652C265.667 61.3657 266.028 61.7663 266.425 62.1401C268.412 64.045 270.75 65.5492 273.36 66.6174C275.996 67.6855 278.841 68.2285 281.847 68.2285C284.918 68.2285 287.825 67.6588 290.48 66.5195C293.134 65.3979 295.464 63.8224 297.423 61.8642C299.374 59.9059 300.945 57.6184 302.083 55.0459C303.238 52.4468 303.816 49.643 303.816 46.7323C303.816 43.7505 303.22 40.911 302.037 38.2763C300.891 35.6861 299.283 33.3718 297.306 31.4224ZM281.856 59.2829C280.105 59.2829 278.452 58.9535 276.926 58.3037C275.382 57.6451 274.019 56.7372 272.854 55.5978C271.698 54.4674 270.777 53.1144 270.109 51.5923C269.45 50.088 269.116 48.4591 269.116 46.7412C269.116 45.0055 269.45 43.3588 270.109 41.8278C270.777 40.2879 271.698 38.9261 272.854 37.7867C274.01 36.6474 275.382 35.7395 276.926 35.0808C278.452 34.4399 280.114 34.1106 281.856 34.1106C283.608 34.1106 285.279 34.4399 286.841 35.0897C288.394 35.7395 289.775 36.6563 290.931 37.7956C292.087 38.935 293.017 40.2968 293.676 41.8367C294.335 43.3677 294.669 45.0233 294.669 46.7501C294.669 48.468 294.335 50.0969 293.676 51.6012C293.017 53.1322 292.087 54.4763 290.931 55.6067C289.775 56.755 288.394 57.654 286.832 58.3126C285.288 58.9535 283.608 59.2829 281.856 59.2829Z" fill="white"/>
</svg>