<svg xmlns="http://www.w3.org/2000/svg" width="100" height="100" viewBox="0 0 100 100" fill="none">
<path d="M10 72.5833C10 75.0226 11.9774 77 14.4167 77H85.5833C88.0226 77 90 75.0226 90 72.5833V72.5833C90 70.1441 88.0226 68.1667 85.5833 68.1667H14.4167C11.9774 68.1667 10 70.1441 10 72.5833V72.5833ZM10 50.5C10 52.9393 11.9774 54.9167 14.4167 54.9167H85.5833C88.0226 54.9167 90 52.9393 90 50.5V50.5C90 48.0607 88.0226 46.0833 85.5833 46.0833H14.4167C11.9774 46.0833 10 48.0607 10 50.5V50.5ZM14.4167 24C11.9774 24 10 25.9774 10 28.4167V28.4167C10 30.8559 11.9774 32.8333 14.4167 32.8333H85.5833C88.0226 32.8333 90 30.8559 90 28.4167V28.4167C90 25.9774 88.0226 24 85.5833 24H14.4167Z" fill="white"/>
</svg>