<svg xmlns="http://www.w3.org/2000/svg" width="4" height="20" viewBox="0 0 4 20" fill="none">
<path d="M2 20C1.58333 20 1.22917 19.8542 0.937499 19.5625C0.645833 19.2708 0.5 18.9167 0.5 18.5C0.5 18.0833 0.645833 17.7292 0.937499 17.4375C1.22917 17.1458 1.58333 17 2 17C2.41667 17 2.77083 17.1458 3.0625 17.4375C3.35417 17.7292 3.5 18.0833 3.5 18.5C3.5 18.9167 3.35417 19.2708 3.0625 19.5625C2.77083 19.8542 2.41667 20 2 20ZM2 11.5C1.58333 11.5 1.22917 11.3542 0.937499 11.0625C0.645833 10.7708 0.5 10.4167 0.5 10C0.5 9.58333 0.645833 9.22917 0.937499 8.9375C1.22917 8.64583 1.58333 8.5 2 8.5C2.41667 8.5 2.77083 8.64583 3.0625 8.9375C3.35417 9.22917 3.5 9.58333 3.5 10C3.5 10.4167 3.35417 10.7708 3.0625 11.0625C2.77083 11.3542 2.41667 11.5 2 11.5ZM2 3C1.58333 3 1.22917 2.85417 0.937499 2.5625C0.645833 2.27083 0.5 1.91667 0.5 1.5C0.5 1.08333 0.645833 0.729167 0.937499 0.4375C1.22917 0.145833 1.58333 0 2 0C2.41667 0 2.77083 0.145833 3.0625 0.4375C3.35417 0.729167 3.5 1.08333 3.5 1.5C3.5 1.91667 3.35417 2.27083 3.0625 2.5625C2.77083 2.85417 2.41667 3 2 3Z" fill="white"/>
</svg>